<?xml version="1.0" encoding="UTF-8" standalone="no"?>
<svg
   xmlns:dc="http://purl.org/dc/elements/1.1/"
   xmlns:cc="http://creativecommons.org/ns#"
   xmlns:rdf="http://www.w3.org/1999/02/22-rdf-syntax-ns#"
   xmlns:svg="http://www.w3.org/2000/svg"
   xmlns="http://www.w3.org/2000/svg"
   xmlns:sodipodi="http://sodipodi.sourceforge.net/DTD/sodipodi-0.dtd"
   xmlns:inkscape="http://www.inkscape.org/namespaces/inkscape"
   width="2000mm"
   height="1952.4574mm"
   viewBox="0 0 7086.6144 6918.1564"
   id="svg3371"
   version="1.1"
   inkscape:version="1.0 (4035a4fb49, 2020-05-01)"
   sodipodi:docname="darkwaterlarge.svg">
  <defs
     id="defs3373" />
  <sodipodi:namedview
     id="base"
     pagecolor="#000000"
     bordercolor="#666666"
     borderopacity="1.0"
     inkscape:pageopacity="0"
     inkscape:pageshadow="2"
     inkscape:zoom="0.048541777"
     inkscape:cx="1391.852"
     inkscape:cy="6070.9768"
     inkscape:document-units="px"
     inkscape:current-layer="layer1"
     showgrid="false"
     inkscape:window-width="1368"
     inkscape:window-height="850"
     inkscape:window-x="-6"
     inkscape:window-y="-6"
     inkscape:window-maximized="1"
     units="mm"
     inkscape:document-rotation="0"
     inkscape:pagecheckerboard="false"
     inkscape:showpageshadow="false"
     fit-margin-top="0"
     fit-margin-left="0"
     fit-margin-right="0"
     fit-margin-bottom="0" />
  <metadata
     id="metadata3376">
    <rdf:RDF>
      <cc:Work
         rdf:about="">
        <dc:format>image/svg+xml</dc:format>
        <dc:type
           rdf:resource="http://purl.org/dc/dcmitype/StillImage" />
        <dc:title />
      </cc:Work>
    </rdf:RDF>
  </metadata>
  <g
     inkscape:label="Layer 1"
     inkscape:groupmode="layer"
     id="layer1"
     transform="translate(-24.666063,-901.38227)">
    <path
       transform="matrix(0.93750002,0,0,0.93750002,24.666063,901.38227)"
       d="M 1352.6484 0.00390625 L 1352.6484 944.71094 C 1197.5828 768.17469 1013.891 679.90625 801.57031 679.90625 C 570.16469 679.90625 378.71765 763.99895 227.23047 932.18555 C 75.743278 1099.1793 -7.5791225e-14 1343.7063 0 1665.7656 C 3.7895613e-14 1980.6682 77.532027 2226.3876 232.59766 2402.9238 C 388.8561 2578.2673 576.12743 2665.9395 794.41211 2665.9395 C 901.76524 2665.9395 1007.927 2639.6967 1112.8945 2587.2129 C 1219.0548 2533.5364 1310.9008 2452.4249 1388.4336 2343.8789 L 1388.4336 2622.998 L 1855.4199 2622.998 L 1855.4199 0.00390625 L 1352.6484 0.00390625 z M 5798.8574 0.00390625 L 5798.8574 2622.998 L 6301.6289 2622.998 L 6301.6289 2014.6641 L 6536.0156 1769.541 L 7013.7363 2622.998 L 7555.8711 2622.998 L 6859.8633 1417.0645 L 7509.3516 722.84766 L 6890.2812 722.84766 L 6301.6289 1392.0156 L 6301.6289 0.00390625 L 5798.8574 0.00390625 z M 3095.3477 679.90625 C 2848.4354 679.90625 2662.3566 724.04044 2537.1113 812.30859 C 2411.866 900.57668 2323.5976 1036.5568 2272.3066 1220.25 L 2728.5586 1302.5547 C 2759.5717 1214.2866 2800.1265 1152.8572 2850.2246 1118.2656 C 2900.3227 1082.4812 2970.1035 1064.5879 3059.5645 1064.5879 C 3191.9666 1064.5879 3282.0238 1085.4625 3329.7363 1127.2109 C 3377.4488 1167.7665 3401.3047 1236.3529 3401.3047 1332.9707 L 3401.3047 1383.0703 C 3310.651 1421.2403 3147.8317 1462.3913 2912.8477 1506.5254 C 2738.697 1539.9241 2605.1019 1579.2864 2512.0625 1624.6133 C 2420.216 1668.7473 2348.6484 1733.1599 2297.3574 1817.8496 C 2246.0665 1901.3465 2220.4199 1996.7719 2220.4199 2104.125 C 2220.4199 2266.3475 2276.4831 2400.5389 2388.6074 2506.6992 C 2501.9246 2612.8595 2656.3924 2665.9395 2852.0137 2665.9395 C 2962.9452 2665.9395 3067.3163 2645.0648 3165.127 2603.3164 C 3262.9376 2561.5679 3354.7854 2498.9461 3440.668 2415.4492 C 3444.2464 2424.9918 3450.2089 2444.6719 3458.5586 2474.4922 C 3477.6436 2540.0969 3493.7482 2589.5993 3506.8691 2622.998 L 4004.2715 2622.998 C 3960.1374 2532.3443 3929.7209 2447.6553 3913.0215 2368.9297 C 3897.5149 2289.0113 3889.7617 2165.5543 3889.7617 1998.5605 L 3895.1289 1411.6973 C 3895.1289 1193.4125 3872.4655 1043.7148 3827.1387 962.60352 C 3783.0046 880.29945 3706.0689 812.90557 3596.3301 760.42188 C 3486.5913 706.74527 3319.5964 679.90625 3095.3477 679.90625 z M 5271.0391 679.90625 C 5189.9278 679.90625 5117.1658 700.18457 5052.7539 740.74023 C 4989.5348 781.29582 4917.9653 865.3886 4838.0469 993.01953 L 4838.0469 722.84766 L 4371.0605 722.84766 L 4371.0605 2622.998 L 4873.832 2622.998 L 4873.832 2036.1348 C 4873.832 1712.8826 4887.5496 1500.561 4914.9844 1399.1719 C 4943.6119 1297.7829 4982.3779 1228.004 5031.2832 1189.834 C 5080.1885 1150.4711 5139.8292 1130.7891 5210.2051 1130.7891 C 5282.9667 1130.7891 5361.6912 1158.2241 5446.3809 1213.0938 L 5602.043 774.73438 C 5495.8827 711.5153 5385.5491 679.90625 5271.0391 679.90625 z M 933.97266 1064.5879 C 1056.8324 1064.5879 1157.624 1112.8978 1236.3496 1209.5156 C 1315.0752 1304.9406 1354.4375 1461.7954 1354.4375 1680.0801 C 1354.4375 1875.7013 1313.8827 2023.0142 1232.7715 2122.0176 C 1151.6602 2219.8282 1053.2536 2268.7324 937.55078 2268.7324 C 792.02766 2268.7324 678.71085 2203.1274 597.59961 2071.918 C 541.53742 1981.2642 513.50586 1834.5496 513.50586 1631.7715 C 513.50586 1443.3071 553.46437 1301.9587 633.38281 1207.7266 C 714.49406 1112.3016 814.69141 1064.5879 933.97266 1064.5879 z M 3401.3047 1710.4961 L 3401.3047 1810.6934 C 3401.3047 1931.1675 3394.744 2012.8752 3381.623 2055.8164 C 3362.538 2121.4211 3322.5795 2176.886 3261.7461 2222.2129 C 3179.442 2281.8536 3092.9623 2311.6738 3002.3086 2311.6738 C 2921.1973 2311.6738 2854.3998 2286.0292 2801.916 2234.7383 C 2749.4322 2183.4473 2723.1914 2122.6123 2723.1914 2052.2363 C 2723.1914 1980.6676 2755.993 1921.6251 2821.5977 1875.1055 C 2864.539 1846.4779 2955.7886 1817.2539 3095.3477 1787.4336 C 3234.9067 1757.6133 3336.8928 1731.9667 3401.3047 1710.4961 z M 3.6972656 3272.7344 L 3.6972656 3570.7617 L 3.6972656 3868.7891 L 91.53125 3886.7559 C 215.83055 3912.1777 292.60367 3976.2092 480.47852 4211.1523 C 799.45051 4610.0357 970.49718 4754.458 1220.5137 4835.9961 L 1220.5176 4835.9922 C 1288.9276 4858.3037 1414.4336 4868.8338 1554.4824 4864.127 C 1744.5631 4857.6809 1804.1794 4844.0093 1944.6035 4774.6621 C 2125.7744 4685.193 2286.3025 4533.9517 2543.8906 4210.0469 C 2754.9226 3944.6851 2843.7469 3883.9238 3020.6406 3883.9238 C 3197.5328 3883.9238 3286.3592 3944.6851 3497.3906 4210.0469 C 3756.3277 4535.6469 3915.2899 4685.0876 4099.4297 4776.0176 C 4255.1521 4852.914 4287.7509 4859.2266 4529.1113 4859.2266 C 4770.4726 4859.2266 4803.0703 4852.9167 4958.793 4776.0176 C 5142.9331 4685.0876 5301.8955 4535.6469 5560.832 4210.0469 C 5771.8635 3944.6851 5860.6898 3883.9238 6037.582 3883.9238 C 6214.475 3883.9238 6303.2986 3944.6851 6514.3301 4210.0469 C 6875.2646 4663.9032 7106.9851 4832.8518 7411.666 4864.2969 L 7559.0547 4879.5078 L 7559.0547 4576.7773 C 7559.0547 4299.9936 7554.9395 4274.0449 7511.127 4274.0449 C 7395.5466 4274.0449 7242.8512 4149.5351 7023.959 3876.8066 C 6642.8708 3401.9901 6433.272 3273.7411 6037.5781 3273.2715 C 5828.9562 3273.0225 5784.7754 3281.8518 5631.2441 3354.4805 C 5421.9848 3453.4717 5289.1643 3570.302 5074.3203 3844.3535 C 4738.8654 4272.2564 4599.5777 4344.2749 4345.4141 4221.2363 C 4266.5476 4183.0579 4178.7759 4094.7026 4028.584 3902.3027 C 3769.9147 3570.942 3645.9705 3458.0794 3426.9727 3354.4805 C 3273.6767 3281.9637 3228.9397 3272.9902 3020.6387 3272.9902 C 2812.3364 3272.9902 2767.5982 3281.9635 2614.3027 3354.4805 C 2405.0436 3453.4717 2272.2234 3570.302 2057.3789 3844.3535 C 1791.254 4183.82 1675.4109 4274.0449 1505.6816 4274.0449 C 1355.0621 4274.0449 1228.5816 4177.5198 997.07617 3885.9023 C 873.04065 3729.6594 720.8592 3560.2829 658.89453 3509.5078 C 504.67625 3383.1374 285.94898 3287.66 132.01953 3279.5195 L 3.6972656 3272.7344 z M 4444.5605 5192.7734 L 4175.9258 5354.8555 L 4175.9258 5749.5527 L 3977.8262 5749.5527 L 3977.8262 5959.6562 L 4175.9258 5959.6562 L 4175.9258 6876.6152 C 4175.9258 7038.6962 4186.9304 7145.2499 4208.9414 7196.2754 C 4230.9524 7246.3003 4268.9711 7286.8204 4322.998 7317.8359 C 4377.0251 7348.8514 4453.0643 7364.3594 4551.1133 7364.3594 C 4611.1433 7364.3594 4679.1769 7356.3556 4755.2148 7340.3477 L 4716.1953 7101.7285 C 4667.1708 7108.732 4627.6517 7112.2324 4597.6367 7112.2324 C 4557.6167 7112.2324 4526.6009 7105.7292 4504.5898 7092.7227 C 4483.5794 7079.7161 4468.0714 7062.2082 4458.0664 7040.1973 C 4449.0619 7018.1862 4444.5605 6968.6616 4444.5605 6891.623 L 4444.5605 5959.6562 L 4716.1953 5959.6562 L 4716.1953 5749.5527 L 4444.5605 5749.5527 L 4444.5605 5192.7734 z M 3089.3828 5713.5332 C 2952.3143 5713.5332 2831.7532 5732.5435 2727.7012 5770.5625 C 2623.6492 5807.581 2544.1095 5861.1076 2489.082 5931.1426 C 2434.0545 6000.1771 2394.5354 6091.2228 2370.5234 6204.2793 L 2634.6562 6240.2969 C 2663.6707 6127.2404 2708.1926 6048.7017 2768.2227 6004.6797 C 2829.2532 5959.6572 2923.2998 5937.1465 3050.3633 5937.1465 C 3186.4313 5937.1465 3288.9831 5967.6609 3358.0176 6028.6914 C 3409.0431 6073.7139 3434.5547 6151.2536 3434.5547 6261.3086 C 3434.5547 6271.3136 3434.0552 6294.8252 3433.0547 6331.8438 C 3330.0032 6367.8617 3169.4235 6398.8757 2951.3145 6424.8887 C 2844.2609 6437.8952 2764.2198 6451.4032 2711.1934 6465.4102 C 2639.1574 6485.4202 2574.1247 6514.9336 2516.0957 6553.9531 C 2459.0672 6592.9726 2412.5453 6644.9987 2376.5273 6710.0312 C 2341.5098 6774.0632 2324 6845.0997 2324 6923.1387 C 2324 7056.2052 2371.0233 7165.7598 2465.0703 7251.8027 C 2559.1173 7336.8453 2693.684 7379.3672 2868.7715 7379.3672 C 2974.8245 7379.3672 3073.8739 7361.8574 3165.9199 7326.8398 C 3258.9664 7291.8223 3355.5164 7231.7925 3455.5664 7146.75 C 3463.5705 7221.7875 3481.5778 7287.3196 3509.5918 7343.3477 L 3791.7344 7343.3477 C 3757.7174 7282.3171 3734.7052 7218.7869 3722.6992 7152.7539 C 3711.6937 7085.7204 3706.1914 6926.6411 3706.1914 6675.5156 L 3706.1914 6315.334 C 3706.1914 6195.274 3701.6881 6112.2339 3692.6836 6066.2109 C 3676.6756 5992.174 3648.6626 5931.1432 3608.6426 5883.1191 C 3568.6225 5834.0946 3506.0913 5793.5746 3421.0488 5761.5586 C 3336.0063 5729.5426 3225.4508 5713.5332 3089.3828 5713.5332 z M 5633.1543 5713.5332 C 5413.0443 5713.5332 5233.9537 5787.5705 5095.8848 5935.6445 C 4957.8157 6083.7185 4888.7812 6291.823 4888.7812 6559.957 C 4888.7812 6819.0865 4956.8148 7020.6877 5092.8828 7164.7598 C 5229.9513 7307.8313 5415.0436 7379.3672 5648.1602 7379.3672 C 5833.2526 7379.3672 5985.3291 7334.3438 6104.3887 7244.2988 C 6223.4482 7154.2538 6304.9897 7027.6909 6349.0117 6864.6094 L 6069.8711 6830.0918 C 6028.8507 6944.1488 5973.3241 7027.1908 5903.2891 7079.2168 C 5833.2541 7131.2428 5748.7116 7157.2559 5649.6621 7157.2559 C 5516.5956 7157.2559 5405.5406 7110.732 5316.4961 7017.6855 C 5227.4516 6924.639 5177.9269 6790.5719 5167.9219 6615.4844 L 6356.5156 6615.4844 C 6357.5161 6583.4684 6358.0156 6559.4572 6358.0156 6543.4492 C 6358.0156 6280.3177 6290.4815 6076.2151 6155.4141 5931.1426 C 6020.3465 5786.0701 5846.2608 5713.5332 5633.1543 5713.5332 z M 7274.9746 5713.5332 C 7211.9431 5713.5332 7153.9133 5731.5426 7100.8867 5767.5605 C 7048.8608 5803.5785 6991.8318 5878.1154 6929.8008 5991.1719 L 6929.8008 5749.5527 L 6686.6797 5749.5527 L 6686.6797 7343.3477 L 6956.8145 7343.3477 L 6956.8145 6508.9316 C 6956.8145 6394.8746 6971.8229 6289.8214 7001.8379 6193.7734 C 7021.8479 6130.742 7055.3652 6081.7187 7102.3887 6046.7012 C 7149.4122 6010.6832 7202.4373 5992.6738 7261.4668 5992.6738 C 7327.4998 5992.6738 7393.5334 6012.1836 7459.5664 6051.2031 L 7552.6133 5800.5781 C 7458.5663 5742.5491 7366.0201 5713.5332 7274.9746 5713.5332 z M 0.83984375 5749.5527 L 488.58203 7343.3477 L 770.72461 7343.3477 L 1093.3848 6117.2363 L 1154.916 6388.8711 L 1408.543 7343.3477 L 1689.1836 7343.3477 L 2187.4316 5749.5527 L 1924.8008 5749.5527 L 1651.6641 6671.0117 L 1560.1191 6978.666 L 1480.5781 6674.0137 L 1241.959 5749.5527 L 964.32031 5749.5527 L 710.69336 6683.0176 C 659.66786 6885.1186 632.15434 6994.675 628.15234 7011.6836 L 533.60547 6669.5117 L 279.97852 5749.5527 L 0.83984375 5749.5527 z M 5636.1543 5935.6445 C 5773.2228 5935.6445 5884.7793 5987.6707 5970.8223 6091.7227 C 6026.8503 6158.7562 6060.8671 6259.3061 6072.873 6393.373 L 5182.9277 6393.373 C 5191.9322 6254.3035 5238.456 6143.2485 5322.498 6060.207 C 5407.5405 5977.1655 5512.0923 5935.6445 5636.1543 5935.6445 z M 3433.0547 6543.4492 L 3433.0547 6642.498 C 3433.0547 6761.5575 3418.5477 6851.6023 3389.5332 6912.6328 C 3351.5142 6991.6723 3291.9839 7054.2035 3210.9434 7100.2266 C 3129.9029 7145.2491 3037.3567 7167.7598 2933.3047 7167.7598 C 2828.2522 7167.7598 2748.213 7143.7486 2693.1855 7095.7246 C 2639.1585 7047.7006 2612.1445 6987.6707 2612.1445 6915.6348 C 2612.1445 6868.6113 2624.6496 6826.0894 2649.6621 6788.0703 C 2674.6747 6749.0509 2710.1938 6719.5374 2756.2168 6699.5273 C 2802.2398 6679.5173 2880.7785 6661.508 2991.834 6645.5 C 3187.932 6617.486 3335.0057 6583.4692 3433.0547 6543.4492 z "
       style="fill:#ffffff;stroke-width:4.70655"
       id="path3384" />
    <g
       aria-label="dark"
       id="text3416"
       style="font-style:normal;font-weight:normal;font-size:2935.28px;line-height:0%;font-family:sans-serif;letter-spacing:0px;word-spacing:0px;fill:#ffffff;fill-opacity:1;stroke:none;stroke-width:4.41239px;stroke-linecap:butt;stroke-linejoin:miter;stroke-opacity:1" />
    <g
       aria-label="water"
       id="text3420"
       style="font-style:normal;font-weight:normal;font-size:2935.28px;line-height:0%;font-family:sans-serif;letter-spacing:0px;word-spacing:0px;fill:#ffffff;fill-opacity:1;stroke:none;stroke-width:4.41239px;stroke-linecap:butt;stroke-linejoin:miter;stroke-opacity:1" />
  </g>
</svg>
