<?xml version="1.0" encoding="UTF-8" standalone="no"?>
<svg
   xmlns:dc="http://purl.org/dc/elements/1.1/"
   xmlns:cc="http://creativecommons.org/ns#"
   xmlns:rdf="http://www.w3.org/1999/02/22-rdf-syntax-ns#"
   xmlns:svg="http://www.w3.org/2000/svg"
   xmlns="http://www.w3.org/2000/svg"
   xmlns:sodipodi="http://sodipodi.sourceforge.net/DTD/sodipodi-0.dtd"
   xmlns:inkscape="http://www.inkscape.org/namespaces/inkscape"
   inkscape:version="1.0 (4035a4fb49, 2020-05-01)"
   sodipodi:docname="dW larger.svg"
   id="svg29"
   version="1.0"
   preserveAspectRatio="xMidYMid meet"
   height="500"
   viewBox="0 0 375 374.999991"
   zoomAndPan="magnify"
   width="500">
  <metadata
     id="metadata33">
    <rdf:RDF>
      <cc:Work
         rdf:about="">
        <dc:format>image/svg+xml</dc:format>
        <dc:type
           rdf:resource="http://purl.org/dc/dcmitype/StillImage" />
        <dc:title></dc:title>
      </cc:Work>
    </rdf:RDF>
  </metadata>
  <sodipodi:namedview
     inkscape:current-layer="svg29"
     inkscape:window-maximized="0"
     inkscape:window-y="133"
     inkscape:window-x="1983"
     inkscape:cy="250"
     inkscape:cx="250"
     inkscape:zoom="1.47"
     inkscape:pagecheckerboard="true"
     showgrid="false"
     id="namedview31"
     inkscape:window-height="825"
     inkscape:window-width="2053"
     inkscape:pageshadow="2"
     inkscape:pageopacity="0"
     guidetolerance="10"
     gridtolerance="10"
     objecttolerance="10"
     borderopacity="1"
     bordercolor="#666666"
     pagecolor="#ffffff" />
  <defs
     id="defs7">
    <g
       id="g2" />
    <clipPath
       id="4fe41be012">
      <path
         id="path4"
         clip-rule="nonzero"
         d="M 14.101562 228.457031 L 360.613281 228.457031 L 360.613281 287.1875 L 14.101562 287.1875 Z M 14.101562 228.457031 " />
    </clipPath>
  </defs>
  <g
     id="g15"
     fill-opacity="1"
     fill="#ffffff">
    <g
       id="g13"
       transform="translate(17.081998, 256.739797)">
      <g
         id="g11">
        <path
           transform="matrix(0.74999999,0,0,0.74999999,-17.081998,-256.7398)"
           d="M 147.96289 100.92383 L 147.96289 212.08984 C 135.61393 200.10547 119.89062 194.11133 100.79688 194.11133 C 80.031244 194.11133 62.912109 201.50716 49.443359 216.29883 C 35.969401 231.08008 29.234375 249.13151 29.234375 270.46484 C 29.234375 283.53222 31.775257 295.34881 36.830078 305.92578 C 58.985139 309.6206 64.697394 319.81836 96.1875 319.81836 C 134.63542 319.81836 134.63476 304.60938 173.08789 304.60938 C 183.6472 304.60938 191.29807 305.75968 197.65039 307.42383 L 197.65039 203.55664 L 259.77148 319.44727 C 287.48681 317.22485 291.69848 305.70664 322.45703 304.68945 L 338.82227 267.94531 L 357.17383 309.14844 C 370.3751 313.63035 379.26343 319.81836 403.79688 319.81836 C 409.29921 319.81836 413.99933 319.50053 418.15234 318.9668 L 482.82227 198.32031 L 425.55078 198.32031 L 390.46875 276.07031 L 355.94727 198.32031 L 321.69727 198.32031 L 287.17578 276.07031 L 252.09375 198.32031 L 197.65039 198.32031 L 197.65039 100.92383 L 147.96289 100.92383 z M 115.69336 236.50781 C 125.03711 236.50781 132.94206 239.68945 139.40039 246.04883 C 145.85872 252.41341 149.08789 260.54818 149.08789 270.46484 C 149.08789 280.20443 145.94791 288.25195 139.67188 294.61133 C 133.40625 300.97591 125.41211 304.15234 115.69336 304.15234 C 105.57878 304.15234 97.432943 301.02344 91.255859 294.75781 C 85.089193 288.48177 82.005859 280.38151 82.005859 270.46484 C 82.005859 260.54818 85.223959 252.41341 91.671875 246.04883 C 98.130208 239.68945 106.13607 236.50781 115.69336 236.50781 z "
           style="stroke-width:1.33333"
           id="path9" />
      </g>
    </g>
  </g>
  <g
     id="g23"
     fill-opacity="1"
     fill="#ffffff">
    <g
       id="g21"
       transform="translate(150.335657, 256.739797)">
      <g
         id="g19" />
    </g>
  </g>
  <g
     id="g27"
     clip-path="url(#4fe41be012)" />
</svg>
