<?xml version="1.0" encoding="UTF-8" standalone="no"?>
<svg
   xmlns:dc="http://purl.org/dc/elements/1.1/"
   xmlns:cc="http://creativecommons.org/ns#"
   xmlns:rdf="http://www.w3.org/1999/02/22-rdf-syntax-ns#"
   xmlns:svg="http://www.w3.org/2000/svg"
   xmlns="http://www.w3.org/2000/svg"
   xmlns:sodipodi="http://sodipodi.sourceforge.net/DTD/sodipodi-0.dtd"
   xmlns:inkscape="http://www.inkscape.org/namespaces/inkscape"
   inkscape:version="1.0 (4035a4fb49, 2020-05-01)"
   sodipodi:docname="hidden cove logo.svg"
   id="svg86"
   version="1.0"
   preserveAspectRatio="xMidYMid meet"
   height="500"
   viewBox="0 0 375 374.999991"
   zoomAndPan="magnify"
   width="500">
  <metadata
     id="metadata90">
    <rdf:RDF>
      <cc:Work
         rdf:about="">
        <dc:format>image/svg+xml</dc:format>
        <dc:type
           rdf:resource="http://purl.org/dc/dcmitype/StillImage" />
        <dc:title></dc:title>
      </cc:Work>
    </rdf:RDF>
  </metadata>
  <sodipodi:namedview
     inkscape:current-layer="svg86"
     inkscape:window-maximized="0"
     inkscape:window-y="14"
     inkscape:window-x="2012"
     inkscape:cy="250"
     inkscape:cx="250"
     inkscape:zoom="1.47"
     inkscape:pagecheckerboard="true"
     showgrid="false"
     id="namedview88"
     inkscape:window-height="906"
     inkscape:window-width="1865"
     inkscape:pageshadow="2"
     inkscape:pageopacity="0"
     guidetolerance="10"
     gridtolerance="10"
     objecttolerance="10"
     borderopacity="1"
     bordercolor="#666666"
     pagecolor="#ffffff" />
  <defs
     id="defs4">
    <g
       id="g2" />
  </defs>
  <g
     style="fill:#ffffff"
     id="g12"
     fill-opacity="1"
     fill="#000000">
    <g
       style="fill:#ffffff"
       id="g10"
       transform="translate(27.643032, 188.683994)">
      <g
         style="fill:#ffffff"
         id="g8">
        <path
           transform="matrix(0.74999999,0,0,0.74999999,-27.643032,-188.68399)"
           d="M 452.68359 107.78711 C 447.95964 107.78711 444.5013 107.96875 442.30859 108.32812 C 438.48568 109.05208 436.21484 110.41211 435.49609 112.41211 C 434.77214 114.05273 434.41406 116.69271 434.41406 120.32812 C 434.41406 121.06771 434.45573 122.07357 434.53906 123.34961 C 434.63281 124.61523 434.68359 125.51693 434.68359 126.05859 C 434.86068 127.69922 434.99674 130.06836 435.08008 133.16211 C 435.17383 136.24544 435.22656 138.61068 435.22656 140.24609 L 435.22656 153.62109 C 435.22656 154.16276 435.17383 154.80273 435.08008 155.53711 C 434.99674 156.26107 434.95508 156.80273 434.95508 157.16211 L 434.95508 158.26562 C 434.5905 161.17187 434.04297 162.99023 433.30859 163.72461 C 433.1263 163.72461 433.03906 163.77734 433.03906 163.87109 C 433.03906 163.95443 432.94466 163.99609 432.76758 163.99609 C 432.40299 163.99609 432.13216 163.9069 431.95508 163.72461 C 430.49674 162.80794 427.94401 158.80208 424.30859 151.70312 C 423.58464 150.26042 422.3138 147.76628 420.49609 144.22461 C 418.67318 140.67253 417.30924 138.07422 416.39258 136.43359 C 415.85091 135.33984 414.66927 133.33984 412.85156 130.43359 C 411.02865 127.51693 409.66276 125.15104 408.74609 123.32812 C 405.66276 117.32812 402.93945 113.59896 400.58008 112.14062 C 398.56445 110.88021 396.55859 110.24609 394.55859 110.24609 C 392.93359 110.24609 391.48112 110.60938 390.20508 111.32812 C 388.38216 112.42708 387.47656 114.69792 387.47656 118.14062 C 387.47656 118.88021 387.42383 120.20443 387.33008 122.12109 C 387.24674 124.02734 387.20508 125.70378 387.20508 127.16211 C 387.02279 131.52669 386.93359 137.98503 386.93359 146.53711 C 386.93359 150.90169 387.11198 157.26172 387.47656 165.62109 L 387.47656 180.91211 C 387.47656 182.91211 387.42383 185.82292 387.33008 189.64062 C 387.24674 193.46354 387.20508 196.46354 387.20508 198.64062 C 387.20508 200.64063 387.24674 203.86979 387.33008 208.32812 C 387.42383 212.78646 387.47656 216.11003 387.47656 218.28711 L 387.47656 227.84961 C 387.47656 228.93294 387.42383 230.34375 387.33008 232.07812 C 387.24674 233.80208 387.20508 235.02734 387.20508 235.74609 C 387.20508 236.30339 387.15234 237.13086 387.05859 238.22461 C 386.97526 239.30794 386.93359 240.12044 386.93359 240.66211 C 386.93359 243.57878 387.56445 245.57878 388.83008 246.66211 C 390.28841 247.94336 393.29427 248.57812 397.85156 248.57812 C 400.21094 248.57812 403.02734 248.40169 406.30859 248.03711 C 409.39193 247.67773 411.29948 246.67773 412.03906 245.03711 C 412.9401 242.8444 413.39258 238.11523 413.39258 230.84961 L 413.39258 218.01562 C 413.39258 209.83854 413.29818 204.19857 413.12109 201.09961 C 413.12109 200.92253 413.07031 200.59896 412.97656 200.14062 C 412.89323 199.68229 412.85156 199.36589 412.85156 199.18359 L 412.85156 196.72461 C 412.85156 195.46419 413.20964 194.82812 413.93359 194.82812 C 415.39193 194.82813 417.85026 197.28255 421.30859 202.18359 C 422.58464 203.82422 425.22656 208.28255 429.22656 215.55859 C 429.76823 216.65755 430.66797 218.29753 431.93359 220.47461 C 433.20964 222.6569 434.1263 224.29687 434.68359 225.39062 C 434.86068 225.75521 435.08594 226.25521 435.35156 226.89062 C 435.6276 227.53125 435.85677 228.03125 436.03906 228.39062 C 436.21615 228.57292 436.30859 228.75651 436.30859 228.93359 C 436.30859 229.11589 436.39779 229.20312 436.58008 229.20312 C 436.75716 229.56771 437.4388 231.06771 438.62109 233.70312 C 439.8138 236.34375 440.77214 238.21484 441.49609 239.30859 C 443.85547 243.30859 446.4974 245.30859 449.41406 245.30859 C 452.33073 245.30859 454.6888 244.2194 456.49609 242.03711 C 458.13151 240.40169 459.23177 236.76172 459.78906 231.12109 C 460.14844 226.74609 460.50651 218.28776 460.87109 205.74609 C 461.23047 188.27734 461.41406 174.26628 461.41406 163.72461 C 461.41406 156.99023 461.23047 147.98438 460.87109 136.70312 C 460.50651 124.52604 459.77734 116.51693 458.68359 112.68359 C 457.60026 109.42318 455.60026 107.78711 452.68359 107.78711 z M 103.98242 108.59961 C 103.25846 108.59961 102.07682 108.69401 100.44141 108.87109 C 98.800781 109.05339 97.613281 109.14062 96.878906 109.14062 C 92.154948 109.50521 89.425781 110.23438 88.691406 111.32812 C 87.243489 112.96875 86.523438 116.69792 86.523438 122.51562 C 86.523437 123.61458 86.565104 125.25651 86.648438 127.43359 C 86.742187 129.61589 86.794922 131.24479 86.794922 132.32812 C 86.794922 134.34375 86.836589 137.34961 86.919922 141.34961 C 87.013673 145.34961 87.153645 148.34961 87.335938 150.34961 C 87.335938 150.71419 87.377604 151.21419 87.460938 151.84961 C 87.554688 152.49023 87.607422 152.99023 87.607422 153.34961 L 87.607422 156.62109 L 87.607422 159.07812 C 87.242838 160.71875 86.882812 161.80794 86.523438 162.34961 C 85.783853 163.26628 84.696614 163.81901 83.253906 163.99609 L 81.335938 163.99609 L 78.066406 163.99609 C 77.326822 163.99609 76.279297 163.95443 74.919922 163.87109 C 73.555339 163.77734 72.326171 163.68294 71.232422 163.59961 C 70.149089 163.50586 69.238281 163.36003 68.503906 163.16211 C 66.68099 162.98503 65.591797 161.17253 65.232422 157.72461 C 64.867838 155.34961 64.507812 150.34375 64.148438 142.70312 L 64.148438 133.97461 C 64.148438 132.69857 64.190104 130.92773 64.273438 128.66211 C 64.367187 126.38607 64.419922 124.69857 64.419922 123.59961 C 64.419922 119.59961 64.238281 116.69401 63.878906 114.87109 C 63.321614 112.32943 62.134114 110.69857 60.316406 109.97461 C 58.493489 109.24023 55.044271 108.87109 49.960938 108.87109 C 48.679688 108.87109 47.315755 109.05273 45.857422 109.41211 C 44.951171 109.5944 43.951171 110.23438 42.857422 111.32812 C 41.399089 112.78646 40.57552 114.15169 40.398438 115.41211 C 39.492187 118.69336 39.044922 123.97005 39.044922 131.24609 C 39.044922 133.42839 39.134114 136.52669 39.316406 140.53711 C 39.493489 144.53711 39.585938 147.53711 39.585938 149.53711 C 39.585937 153.53711 39.764324 159.36068 40.128906 166.99609 L 40.128906 182.53711 C 40.128906 184.91211 40.076171 188.42318 39.982422 193.05859 C 39.899089 197.69922 39.857422 201.11003 39.857422 203.28711 C 39.857422 204.92773 39.899089 207.29687 39.982422 210.39062 C 40.076171 213.47396 40.128906 215.74479 40.128906 217.20312 L 40.128906 230.01562 C 40.128906 230.93229 40.076171 232.30339 39.982422 234.12109 C 39.899089 235.94401 39.857422 237.30208 39.857422 238.20312 C 39.857422 239.48438 40.033853 241.57357 40.398438 244.47461 C 40.757812 246.49023 41.757812 247.67773 43.398438 248.03711 C 45.591146 248.40169 47.691406 248.57812 49.691406 248.57812 C 50.592448 248.57813 52.086589 248.53646 54.169922 248.45312 C 56.263673 248.35938 57.680339 248.30859 58.419922 248.30859 C 62.055339 248.30859 64.14974 247.57943 64.691406 246.12109 C 65.410156 244.48568 65.773438 241.39128 65.773438 236.84961 C 65.773438 235.57357 65.722657 233.52604 65.628906 230.70312 C 65.545573 227.88542 65.503906 225.83984 65.503906 224.55859 L 65.503906 221.28711 C 65.503906 219.82878 65.545573 217.73958 65.628906 215.01562 C 65.722657 212.29687 65.773438 210.11523 65.773438 208.47461 C 65.773438 207.38086 65.722657 205.78646 65.628906 203.70312 C 65.545573 201.60938 65.503906 200.10026 65.503906 199.18359 L 65.503906 198.09961 C 65.503906 196.82357 65.545573 195.68359 65.628906 194.68359 C 65.722657 193.68359 65.773438 192.91276 65.773438 192.37109 L 65.773438 191.26562 C 65.773438 190.72396 65.86263 190.36589 66.044922 190.18359 C 66.779297 188.72526 68.419271 187.81771 70.960938 187.45312 C 71.138022 187.45312 71.503255 187.41146 72.044922 187.32812 C 72.597006 187.23438 73.055339 187.18359 73.419922 187.18359 C 73.779297 187.18359 74.231771 187.14193 74.773438 187.05859 C 75.32552 186.96484 75.696614 186.91211 75.878906 186.91211 L 77.503906 186.91211 C 80.96224 186.91211 83.278645 187.41211 84.460938 188.41211 C 85.653646 189.41211 86.341145 191.73568 86.523438 195.37109 C 86.70052 196.82943 86.794922 199.28776 86.794922 202.74609 L 86.794922 208.74609 C 86.794922 213.47005 86.971355 218.19922 87.335938 222.93359 C 87.877604 228.57422 88.148438 234.30339 88.148438 240.12109 L 88.148438 240.39062 C 88.148437 243.11458 88.695963 244.93294 89.794922 245.84961 C 91.430339 247.13086 94.888672 247.76562 100.16992 247.76562 C 100.88867 247.76563 102.02474 247.72396 103.56641 247.64062 C 105.11849 247.54687 106.16927 247.49609 106.71094 247.49609 C 109.80469 247.12109 111.62826 246.21354 112.16992 244.76562 C 112.71159 243.13021 112.98242 241.12109 112.98242 238.74609 C 112.98242 236.20443 112.80078 232.43359 112.44141 227.43359 C 112.07682 222.43359 111.89844 219.20443 111.89844 217.74609 L 111.89844 205.47461 C 111.89844 202.74023 111.71094 198.92187 111.33594 194.01562 C 110.97135 189.09896 110.79492 185.27669 110.79492 182.53711 L 110.79492 177.07812 C 110.79492 172.53646 110.97135 165.63086 111.33594 156.34961 C 111.71094 147.07357 111.89844 140.07357 111.89844 135.34961 C 111.89844 124.07357 111.4401 116.33854 110.52344 112.14062 C 109.98177 109.78125 107.80013 108.59961 103.98242 108.59961 z M 370.29492 108.87109 C 347.18034 108.87109 332.26367 109.14193 325.54492 109.68359 C 321.72201 110.05859 318.99284 110.51693 317.35742 111.05859 C 314.98242 111.96484 313.42969 113.69401 312.71094 116.24609 C 312.16927 118.06901 311.89844 120.43294 311.89844 123.34961 C 311.89844 126.25586 311.80404 128.43229 311.62695 129.89062 C 311.25195 132.79687 311.06445 137.06771 311.06445 142.70312 C 311.06445 151.61979 311.1595 158.26172 311.35742 162.62109 L 311.35742 168.34961 L 311.35742 170.80859 L 311.35742 182.26562 C 311.35742 183.18229 311.39909 184.55339 311.48242 186.37109 C 311.57617 188.19401 311.62695 189.64128 311.62695 190.72461 C 311.62695 193.09961 311.89779 197.19792 312.43945 203.01562 C 312.98112 208.83854 313.25195 213.28776 313.25195 216.37109 C 313.25195 230.38672 313.98112 239.03255 315.43945 242.30859 C 316.5332 245.03255 318.44596 246.76172 321.16992 247.49609 C 321.88867 247.67839 322.98112 247.76562 324.43945 247.76562 L 326.35742 247.76562 C 332.7168 247.76563 337.17513 247.57813 339.73242 247.20312 C 340.45117 247.02604 341.36198 246.93359 342.46094 246.93359 C 343.72135 246.93359 344.72135 247.02604 345.46094 247.20312 L 351.85742 247.20312 C 354.49284 247.20312 357.58529 247.16146 361.12695 247.07812 C 364.67904 246.98438 366.73763 246.93359 367.29492 246.93359 L 374.37695 246.93359 C 376.37695 246.93359 377.7845 246.75521 378.60742 246.39062 C 379.42513 246.03125 379.9668 245.44401 380.23242 244.62109 C 380.50846 243.80339 380.73763 242.30339 380.91992 240.12109 C 381.09701 238.48568 381.18945 235.66211 381.18945 231.66211 C 381.18945 227.48503 380.64779 224.84505 379.56445 223.74609 C 377.92383 222.11068 374.28385 221.28711 368.64844 221.28711 L 362.64844 221.28711 C 352.09115 221.28711 346.36198 221.19792 345.46094 221.01562 C 343.08594 220.65625 341.35677 219.83984 340.27344 218.55859 C 339.35677 217.65755 338.7168 215.74479 338.35742 212.82812 C 338.35742 212.65104 338.30469 212.38021 338.21094 212.01562 C 338.1276 211.65625 338.08594 211.29818 338.08594 210.93359 L 338.08594 208.74609 C 338.08594 207.11068 338.0332 204.65234 337.93945 201.37109 C 337.85612 198.09505 337.81445 195.63672 337.81445 193.99609 C 337.81445 190.17839 338.26367 187.63672 339.16992 186.37109 C 339.9043 185.27734 341.17904 184.54818 343.00195 184.18359 L 348.73242 184.18359 C 352.00846 184.54818 354.36654 184.72461 355.81445 184.72461 C 357.27279 184.72461 359.63867 184.54818 362.91992 184.18359 C 366.91992 183.82422 369.37826 183.18229 370.29492 182.26562 C 371.37826 181.18229 371.91992 178.73503 371.91992 174.91211 L 371.91992 174.64062 L 371.91992 174.34961 C 371.91992 170.34961 371.73633 167.63151 371.37695 166.18359 C 370.83529 163.80859 369.47201 162.26107 367.29492 161.53711 C 365.6543 160.99544 362.19596 160.72461 356.91992 160.72461 L 347.08594 160.72461 C 346.72135 160.72461 346.17383 160.77734 345.43945 160.87109 C 344.71549 160.95443 344.26302 160.99609 344.08594 160.99609 C 343.72135 160.99609 343.31576 160.95443 342.85742 160.87109 C 342.4095 160.77734 342.09115 160.72461 341.89844 160.72461 C 340.27344 160.34961 339.17904 159.71484 338.62695 158.80859 C 337.7207 156.80859 337.27344 151.71354 337.27344 143.51562 C 337.27344 140.43229 337.63346 138.16146 338.35742 136.70312 C 339.0918 135.24479 341.46094 134.33919 345.46094 133.97461 C 350.17969 133.61523 357.46159 133.43359 367.29492 133.43359 C 371.83659 133.43359 375.19466 133.16276 377.37695 132.62109 C 379.37695 132.06901 380.46615 130.61068 380.64844 128.24609 C 381.00781 126.42839 381.18945 123.05729 381.18945 118.14062 C 381.18945 115.05729 380.91862 112.88086 380.37695 111.59961 C 379.83529 110.32357 378.38281 109.50521 376.02344 109.14062 C 374.92448 108.96354 373.01367 108.87109 370.29492 108.87109 z M 130.99805 109.14062 C 125.7168 109.14063 122.62174 109.59896 121.70508 110.51562 C 120.79883 111.05729 120.25716 112.97005 120.08008 116.24609 C 120.08008 116.97005 120.0293 117.88086 119.93555 118.97461 C 119.85221 120.05794 119.81055 120.88151 119.81055 121.43359 C 119.81055 125.61589 119.89779 128.97396 120.08008 131.51562 L 120.35156 132.05859 L 120.35156 137.78711 C 120.35156 138.16211 120.39323 139.12044 120.47656 140.66211 C 120.57031 142.20378 120.62305 143.52734 120.62305 144.62109 C 120.62305 145.70443 120.57031 147.43359 120.47656 149.80859 C 120.39323 152.17318 120.35156 153.90234 120.35156 154.99609 C 120.35156 156.44401 120.39323 158.57292 120.47656 161.39062 C 120.57031 164.21354 120.62305 166.35026 120.62305 167.80859 L 120.62305 175.45312 C 120.25846 181.63542 120.08008 186.27734 120.08008 189.37109 C 120.08008 197.01172 120.16927 202.74089 120.35156 206.55859 C 120.35156 206.74089 120.39323 207.11003 120.47656 207.66211 C 120.57031 208.20378 120.62305 208.65625 120.62305 209.01562 L 120.62305 214.47461 L 120.62305 241.20312 C 120.62305 244.66146 121.16862 246.84896 122.26758 247.76562 C 123.16862 248.48958 124.79948 248.84961 127.16406 248.84961 C 128.4401 248.84961 130.35091 248.76042 132.89258 248.57812 C 135.44466 248.40104 137.26823 248.30859 138.35156 248.30859 L 140.81055 248.30859 C 142.81055 248.30859 144.08529 247.94271 144.64258 247.20312 C 145.54362 246.11979 145.99805 244.11979 145.99805 241.20312 C 145.99805 240.66146 145.94531 240.03255 145.85156 239.30859 C 145.76823 238.57422 145.72656 238.02669 145.72656 237.66211 C 145.72656 237.30273 145.67383 236.80273 145.58008 236.16211 C 145.49674 235.52669 145.45508 235.02669 145.45508 234.66211 L 145.45508 234.12109 C 145.63216 233.76172 145.72656 233.48503 145.72656 233.28711 C 145.90365 230.74544 145.99805 227.11458 145.99805 222.39062 C 145.99805 216.75521 146.03971 208.24609 146.12305 196.87109 C 146.2168 185.49609 146.26758 176.99023 146.26758 171.34961 C 146.26758 167.34961 146.2168 161.57878 146.12305 154.03711 C 146.03971 146.48503 145.99805 140.79753 145.99805 136.97461 C 145.99805 134.79753 146.03971 131.84505 146.12305 128.12109 C 146.2168 124.38672 146.26758 121.42839 146.26758 119.24609 C 146.26758 115.06901 145.8151 112.42708 144.91406 111.32812 C 143.63281 109.86979 139.72721 109.14062 133.18555 109.14062 L 130.99805 109.14062 z M 185.01367 109.97461 C 183.01367 109.97461 180.05534 110.02734 176.13867 110.12109 C 172.23242 110.20443 169.28516 110.24609 167.28516 110.24609 C 165.10286 110.24609 163.60286 110.29687 162.78516 110.39062 C 161.96224 110.47396 160.91471 110.83919 159.63867 111.47461 C 158.35742 112.09961 157.35742 113.14128 156.63867 114.59961 C 155.35742 117.33919 154.72266 122.97396 154.72266 131.51562 C 154.72266 136.25521 154.62825 143.35026 154.45117 152.80859 C 154.26888 162.26693 154.18164 169.44857 154.18164 174.34961 C 154.18164 177.63086 154.12891 182.45312 154.03516 188.82812 C 153.95182 195.19271 153.91016 200.01107 153.91016 203.28711 C 153.91016 206.74544 154.04102 212.25651 154.30664 219.80859 C 154.58268 227.35026 154.72266 232.85026 154.72266 236.30859 C 154.72266 241.94922 155.45182 245.40169 156.91016 246.66211 C 158.54557 248.12044 163.54557 248.84961 171.91016 248.84961 C 195.37891 248.84961 211.11914 246.57878 219.11914 242.03711 C 222.57747 240.03711 224.67057 237.03125 225.41016 233.01562 C 225.76953 231.01562 225.95117 227.47396 225.95117 222.39062 C 225.95117 218.93229 225.85872 214.20313 225.68164 208.20312 C 225.49935 202.19271 225.41016 197.55273 225.41016 194.28711 C 225.41016 188.45378 225.54102 179.13151 225.80664 166.30859 C 226.08268 153.49089 226.22266 144.26172 226.22266 138.62109 C 226.22266 133.34505 225.66992 129.43229 224.57617 126.89062 C 222.75325 122.15625 219.57682 118.32878 215.03516 115.41211 C 209.21224 111.78711 199.20638 109.97461 185.01367 109.97461 z M 263.05078 109.97461 C 261.05078 109.97461 258.09245 110.02734 254.17578 110.12109 C 250.26953 110.20443 247.32031 110.24609 245.32031 110.24609 C 243.13802 110.24609 241.63802 110.29687 240.82031 110.39062 C 239.9974 110.47396 238.95182 110.83919 237.67578 111.47461 C 236.39453 112.09961 235.39453 113.14128 234.67578 114.59961 C 233.39453 117.33919 232.75781 122.97396 232.75781 131.51562 C 232.75781 136.25521 232.66536 143.35026 232.48828 152.80859 C 232.30599 162.26693 232.2168 169.44857 232.2168 174.34961 C 232.2168 177.63086 232.16406 182.45312 232.07031 188.82812 C 231.98698 195.19271 231.94531 200.01107 231.94531 203.28711 C 231.94531 206.74544 232.07617 212.25651 232.3418 219.80859 C 232.61784 227.35026 232.75781 232.85026 232.75781 236.30859 C 232.75781 241.94922 233.48698 245.40169 234.94531 246.66211 C 236.58073 248.12044 241.58073 248.84961 249.94531 248.84961 C 273.41406 248.84961 289.1543 246.57878 297.1543 242.03711 C 300.61263 240.03711 302.70573 237.03125 303.44531 233.01562 C 303.80469 231.01562 303.98828 227.47396 303.98828 222.39062 C 303.98828 218.93229 303.89388 214.20313 303.7168 208.20312 C 303.5345 202.19271 303.44531 197.55273 303.44531 194.28711 C 303.44531 188.45378 303.57617 179.13151 303.8418 166.30859 C 304.11784 153.49089 304.25781 144.26172 304.25781 138.62109 C 304.25781 133.34505 303.70703 129.43229 302.61328 126.89062 C 300.79036 122.15625 297.61198 118.32878 293.07031 115.41211 C 287.2474 111.78711 277.24349 109.97461 263.05078 109.97461 z M 184.47266 133.43359 L 184.74414 133.43359 L 185.28516 133.70312 L 185.55664 133.70312 L 186.93164 133.70312 C 192.02539 134.60938 194.9362 135.24609 195.66016 135.62109 C 197.66016 136.34505 198.93099 138.16146 199.47266 141.07812 C 199.84766 142.90104 200.21159 146.35026 200.57617 151.43359 C 200.75325 153.61589 200.84766 156.98503 200.84766 161.53711 L 200.84766 166.45312 C 200.48307 175.17708 200.30664 181.81901 200.30664 186.37109 L 200.30664 207.91211 C 200.30664 212.82878 199.93555 216.38151 199.20117 218.55859 L 198.66016 220.20312 C 198.47786 220.56771 198.11784 221.01693 197.57617 221.55859 C 196.83659 222.29818 195.64909 222.84375 194.01367 223.20312 C 193.47201 223.20312 192.60872 223.29753 191.43164 223.47461 C 190.24935 223.6569 189.38932 223.74609 188.84766 223.74609 C 186.29036 224.11068 184.47201 224.28711 183.38867 224.28711 C 181.56576 224.28711 180.37825 223.55794 179.82617 222.09961 C 179.28451 220.83919 179.01367 218.20313 179.01367 214.20312 L 179.01367 207.37109 C 179.55534 196.82943 179.82617 186.19271 179.82617 175.45312 C 179.82617 169.27604 180.01367 159.44857 180.38867 145.97461 L 180.38867 145.43359 C 180.38867 144.71484 180.43034 143.76042 180.51367 142.57812 C 180.60742 141.40104 180.66016 140.62109 180.66016 140.24609 C 181.01953 137.70443 181.37956 136.07357 181.74414 135.34961 C 182.28581 134.07357 183.19141 133.43359 184.47266 133.43359 z M 262.50781 133.43359 L 262.7793 133.43359 L 263.32031 133.70312 L 263.5918 133.70312 L 264.9668 133.70312 C 270.06055 134.60938 272.97135 135.24609 273.69531 135.62109 C 275.69531 136.34505 276.96615 138.16146 277.50781 141.07812 C 277.88281 142.90104 278.2487 146.35026 278.61328 151.43359 C 278.79036 153.61589 278.88281 156.98503 278.88281 161.53711 L 278.88281 166.45312 C 278.51823 175.17708 278.3418 181.81901 278.3418 186.37109 L 278.3418 207.91211 C 278.3418 212.82878 277.97266 216.38151 277.23828 218.55859 L 276.69531 220.20312 C 276.51302 220.56771 276.15495 221.01693 275.61328 221.55859 C 274.8737 222.29818 273.6862 222.84375 272.05078 223.20312 C 271.50911 223.20312 270.64388 223.29753 269.4668 223.47461 C 268.2845 223.6569 267.42448 223.74609 266.88281 223.74609 C 264.32552 224.11068 262.50911 224.28711 261.42578 224.28711 C 259.60287 224.28711 258.41536 223.55794 257.86328 222.09961 C 257.32161 220.83919 257.05078 218.20313 257.05078 214.20312 L 257.05078 207.37109 C 257.59245 196.82943 257.86328 186.19271 257.86328 175.45312 C 257.86328 169.27604 258.05078 159.44857 258.42578 145.97461 L 258.42578 145.43359 C 258.42578 144.71484 258.46745 143.76042 258.55078 142.57812 C 258.64453 141.40104 258.69531 140.62109 258.69531 140.24609 C 259.05469 137.70443 259.41471 136.07357 259.7793 135.34961 C 260.32096 134.07357 261.22656 133.43359 262.50781 133.43359 z M 40.128906 235.74609 C 40.128906 236.84505 40.170573 238.11979 40.253906 239.57812 C 40.347657 241.02604 40.398438 242.02604 40.398438 242.57812 C 40.398438 242.21875 40.347657 241.53711 40.253906 240.53711 C 40.170573 239.53711 40.128906 238.76042 40.128906 238.20312 L 40.128906 235.74609 z M 212.44531 267.44336 C 211.72135 267.44336 210.63411 267.49609 209.17578 267.58984 C 207.72786 267.67318 206.72786 267.71484 206.17578 267.71484 L 194.17578 268.52734 C 191.63411 269.08464 189.36328 270.27214 187.36328 272.08984 C 184.6237 274.45443 182.52865 276.63086 181.07031 278.63086 C 179.6224 280.63086 178.44596 282.90169 177.5293 285.44336 C 176.24805 289.26628 175.42969 292.45378 175.07031 295.00586 C 174.70573 297.37044 174.5293 300.81966 174.5293 305.36133 C 174.5293 307.91862 174.66016 311.74609 174.92578 316.83984 C 175.20182 321.92318 175.3418 325.74674 175.3418 328.29883 C 175.3418 331.02279 175.2474 335.43359 175.07031 341.52734 C 174.88802 347.6263 174.80078 352.1263 174.80078 355.02734 C 174.80078 360.30859 174.97721 367.49609 175.3418 376.58984 C 175.70117 381.6888 176.1595 385.41797 176.7168 387.77734 C 177.25846 389.60026 178.70573 392.23503 181.07031 395.69336 C 183.44531 399.14128 186.17448 401.68294 189.25781 403.31836 C 191.8099 404.59961 196.26823 405.59961 202.63281 406.31836 C 207.36719 406.69336 211.27995 406.88086 214.36328 406.88086 C 223.09766 406.88086 229.55599 405.88086 233.73828 403.88086 C 237.01432 402.42253 239.74349 399.96419 241.92578 396.50586 C 243.92578 393.41211 245.28385 389.86133 246.00781 385.86133 C 246.38281 384.04362 246.7487 378.49609 247.11328 369.21484 C 247.47266 355.75651 247.6543 344.39258 247.6543 335.11133 C 247.6543 333.65299 247.60156 331.70378 247.50781 329.25586 C 247.42448 326.79753 247.38281 324.75195 247.38281 323.11133 C 247.38281 321.47591 247.42448 319.11068 247.50781 316.02734 C 247.60156 312.93359 247.6543 310.65169 247.6543 309.19336 C 247.6543 304.45898 247.20182 299.54818 246.30078 294.46484 C 245.38411 290.45443 244.47135 287.35612 243.57031 285.17383 C 242.28906 282.27279 241.01432 280.00195 239.73828 278.36133 C 238.27995 276.36133 236.18555 274.17383 233.4668 271.79883 C 231.4668 269.99674 229.19596 268.81315 226.6543 268.25586 C 224.45638 267.71419 222.09245 267.44336 219.55078 267.44336 L 212.44531 267.44336 z M 125.95117 267.71484 C 121.04492 267.71484 117.59766 267.98568 115.59766 268.52734 C 113.41536 269.08464 111.22786 270.27214 109.03516 272.08984 C 106.3112 274.45443 104.22201 276.63086 102.76367 278.63086 C 101.30534 280.63086 100.1237 282.90169 99.222656 285.44336 C 97.941406 289.26628 97.123047 292.45378 96.763672 295.00586 C 96.399088 297.37044 96.222656 300.81966 96.222656 305.36133 C 96.222656 307.91862 96.353515 311.74609 96.619141 316.83984 C 96.895182 321.92318 97.035156 325.74674 97.035156 328.29883 C 97.035156 331.02279 96.940755 335.43359 96.763672 341.52734 C 96.58138 347.6263 96.494141 352.1263 96.494141 355.02734 C 96.494141 360.30859 96.670574 367.49609 97.035156 376.58984 C 97.394531 381.6888 97.852864 385.41797 98.410156 387.77734 C 99.128907 390.68359 100.31055 393.31836 101.95117 395.69336 C 103.58659 398.23503 105.58659 400.50586 107.95117 402.50586 C 111.04492 405.24544 115.77409 406.70378 122.13867 406.88086 L 133.05664 406.88086 C 139.23372 406.88086 145.14453 406.60612 150.78516 406.04883 C 156.60286 405.50716 160.60872 404.41797 162.80664 402.77734 C 165.16602 401.14193 166.88932 398.23112 167.97266 394.04883 C 168.70703 390.95508 169.07617 386.77148 169.07617 381.50586 C 169.07617 376.04753 168.70703 372.13086 167.97266 369.75586 C 167.43099 367.75586 165.88932 366.57943 163.34766 366.21484 C 162.43099 366.03776 160.70182 365.94336 158.16016 365.94336 L 156.78516 365.94336 C 151.14453 365.94336 147.60286 366.85612 146.16016 368.67383 C 145.24349 369.59049 144.51432 372.41211 143.97266 377.13086 C 143.60807 380.58919 142.70247 382.77279 141.24414 383.67383 C 139.78581 384.41341 137.05664 384.77734 133.05664 384.77734 L 132.78516 384.77734 L 131.70117 384.77734 C 131.32617 384.77734 130.95703 384.73568 130.59766 384.65234 C 130.23307 384.55859 129.96224 384.50586 129.78516 384.50586 C 127.78516 384.50586 126.41602 384.41862 125.68164 384.23633 C 124.59831 383.86133 123.87305 381.76628 123.51367 377.94336 C 122.95638 372.48503 122.49805 365.21419 122.13867 356.13086 C 121.95638 350.12044 121.86914 342.11133 121.86914 332.11133 L 121.86914 322.00586 C 121.86914 319.64648 121.77474 316.10482 121.59766 311.38086 C 121.41536 306.64648 121.32617 303.18815 121.32617 301.00586 C 121.32617 295.72982 122.32617 292.54818 124.32617 291.46484 C 126.32617 290.37109 129.8737 289.81836 134.97266 289.81836 C 138.23307 289.81836 140.50391 290.18359 141.78516 290.90234 C 143.42057 291.64193 144.33138 293.37109 144.51367 296.08984 C 145.43034 301.73047 146.2487 305.00716 146.97266 305.92383 C 148.43099 307.74674 152.33659 308.65234 158.70117 308.65234 C 161.25326 308.65234 162.98242 308.56315 163.88867 308.38086 C 166.60742 308.00586 168.24935 306.81836 168.80664 304.81836 C 169.34831 303.00065 169.61914 299.08984 169.61914 293.08984 C 169.61914 287.8138 169.25391 283.63216 168.53516 280.54883 C 167.4362 276.17383 165.79622 273.25716 163.61914 271.79883 C 161.43685 270.17383 157.43685 269.09049 151.61914 268.54883 C 145.79622 267.99674 139.79036 267.71484 133.59766 267.71484 L 125.95117 267.71484 z M 391.45703 267.98633 C 368.34245 267.98633 353.42578 268.25716 346.70703 268.79883 C 342.88412 269.17383 340.15495 269.63216 338.51953 270.17383 C 336.14453 271.08008 334.5918 272.80925 333.87305 275.36133 C 333.33138 277.18425 333.06055 279.54818 333.06055 282.46484 C 333.06055 285.37109 332.9681 287.54753 332.79102 289.00586 C 332.41602 291.91211 332.22852 296.18294 332.22852 301.81836 C 332.22852 310.73503 332.32161 317.37695 332.51953 321.73633 L 332.51953 327.46484 L 332.51953 329.92383 L 332.51953 341.38086 C 332.51953 342.29753 332.5612 343.66862 332.64453 345.48633 C 332.73828 347.30925 332.79102 348.75651 332.79102 349.83984 C 332.79102 352.21484 333.06185 356.31315 333.60352 362.13086 C 334.14518 367.95378 334.41602 372.40299 334.41602 375.48633 C 334.41602 389.50195 335.14518 398.14779 336.60352 401.42383 C 337.69726 404.14779 339.60807 405.87695 342.33203 406.61133 C 343.05078 406.79362 344.14518 406.88086 345.60352 406.88086 L 347.51953 406.88086 C 353.87891 406.88086 358.33724 406.69336 360.89453 406.31836 C 361.61328 406.14128 362.52409 406.04883 363.62305 406.04883 C 364.88346 406.04883 365.88346 406.14128 366.62305 406.31836 L 373.01953 406.31836 C 375.65495 406.31836 378.74935 406.27669 382.29102 406.19336 C 385.8431 406.09961 387.89974 406.04883 388.45703 406.04883 L 395.54102 406.04883 C 397.54102 406.04883 398.94661 405.87044 399.76953 405.50586 C 400.58724 405.14648 401.12891 404.55925 401.39453 403.73633 C 401.67057 402.91862 401.89974 401.41862 402.08203 399.23633 C 402.25912 397.60091 402.35352 394.77734 402.35352 390.77734 C 402.35352 386.60026 401.81185 383.96029 400.72852 382.86133 C 399.08789 381.22591 395.44596 380.40234 389.81055 380.40234 L 383.81055 380.40234 C 373.25325 380.40234 367.52409 380.31315 366.62305 380.13086 C 364.24805 379.77148 362.51888 378.95508 361.43555 377.67383 C 360.51888 376.77279 359.87891 374.86003 359.51953 371.94336 C 359.51953 371.76628 359.4668 371.49544 359.37305 371.13086 C 359.28971 370.77148 359.24805 370.41341 359.24805 370.04883 L 359.24805 367.86133 C 359.24805 366.22591 359.19726 363.76758 359.10352 360.48633 C 359.02018 357.21029 358.97852 354.75195 358.97852 353.11133 C 358.97852 349.29362 359.42578 346.75195 360.33203 345.48633 C 361.06641 344.39258 362.3431 343.66341 364.16602 343.29883 L 369.89453 343.29883 C 373.17057 343.66341 375.5306 343.83984 376.97852 343.83984 C 378.43685 343.83984 380.80078 343.66341 384.08203 343.29883 C 388.08203 342.93945 390.54036 342.29753 391.45703 341.38086 C 392.54036 340.29753 393.08203 337.85026 393.08203 334.02734 L 393.08203 333.75586 L 393.08203 333.46484 C 393.08203 329.46484 392.90039 326.74674 392.54102 325.29883 C 391.99935 322.92383 390.63412 321.3763 388.45703 320.65234 C 386.81641 320.11068 383.35807 319.83984 378.08203 319.83984 L 368.24805 319.83984 C 367.88346 319.83984 367.33789 319.89258 366.60352 319.98633 C 365.87956 320.06966 365.42513 320.11133 365.24805 320.11133 C 364.88346 320.11133 364.47786 320.06966 364.01953 319.98633 C 363.57161 319.89258 363.25325 319.83984 363.06055 319.83984 C 361.43555 319.46484 360.3431 318.83008 359.79102 317.92383 C 358.88477 315.92383 358.43555 310.82878 358.43555 302.63086 C 358.43555 299.54753 358.79557 297.27669 359.51953 295.81836 C 360.25391 294.36003 362.62305 293.45443 366.62305 293.08984 C 371.3418 292.73047 378.6237 292.54883 388.45703 292.54883 C 392.9987 292.54883 396.35872 292.27799 398.54102 291.73633 C 400.54102 291.18425 401.62825 289.72591 401.81055 287.36133 C 402.16992 285.54362 402.35352 282.17253 402.35352 277.25586 C 402.35352 274.17253 402.08268 271.99609 401.54102 270.71484 C 400.99935 269.4388 399.54492 268.62044 397.18555 268.25586 C 396.08659 268.07878 394.17578 267.98633 391.45703 267.98633 z M 307.96289 270.17383 C 305.04622 270.17383 303.12956 270.54297 302.21289 271.27734 C 301.30664 272.0013 300.67578 273.90299 300.31641 276.98633 C 298.85807 291.54362 298.12891 302.54753 298.12891 310.00586 C 298.12891 310.72982 298.17057 311.60091 298.25391 312.61133 C 298.34766 313.61133 298.40039 314.38216 298.40039 314.92383 C 298.40039 317.46549 297.94792 320.46549 297.04688 323.92383 C 296.68229 325.56445 296.0931 328.25195 295.27539 331.98633 C 294.45247 335.71029 293.95247 338.02279 293.77539 338.92383 C 293.40039 340.20508 292.80208 342.33984 291.98438 345.33984 C 291.16146 348.33984 290.57227 350.66341 290.21289 352.29883 C 289.84831 353.39779 289.67188 354.12695 289.67188 354.48633 C 289.67188 354.66862 289.61914 354.85026 289.52539 355.02734 C 289.44206 355.20964 289.40039 355.39128 289.40039 355.56836 L 287.75391 348.75586 C 287.57161 348.21419 286.80078 345.58529 285.44141 340.86133 C 284.07682 336.12695 283.21875 332.56836 282.85938 330.19336 C 281.21875 322.37565 280.30599 317.10482 280.12891 314.38086 C 279.57161 308.74544 279.29688 305.3763 279.29688 304.27734 C 279.29688 302.45964 279.34245 299.04883 279.44141 294.04883 C 279.53516 289.04883 279.58789 285.73047 279.58789 284.08984 C 279.58789 277.91276 279.30599 274.27279 278.75391 273.17383 C 277.84766 271.53841 275.67122 270.71484 272.21289 270.71484 L 271.67188 270.71484 C 268.93229 270.71484 265.11393 270.98568 260.21289 271.52734 L 259.37891 271.52734 L 258.83789 271.79883 C 256.83789 272.53841 255.55599 274.45508 255.00391 277.54883 C 254.46224 280.63216 254.19141 287.08464 254.19141 296.90234 L 254.19141 298.54883 C 254.19141 307.28841 254.64063 314.43425 255.54688 319.98633 C 256.46354 325.52799 258.65104 334.9388 262.10938 348.21484 C 262.28646 349.12109 262.51563 350.16276 262.79688 351.33984 C 263.07292 352.52214 263.38932 353.89128 263.75391 355.44336 C 264.11328 356.98503 264.38411 358.12695 264.56641 358.86133 C 265.10807 360.66862 265.87891 363.79753 266.87891 368.25586 C 267.88932 372.71419 268.67122 376.03776 269.21289 378.21484 C 271.0306 384.58984 272.0306 388.14258 272.21289 388.86133 C 272.93164 391.04362 273.84245 394.31836 274.94141 398.69336 C 275.84245 402.87565 276.93164 405.41732 278.21289 406.31836 C 278.93164 407.05794 280.29687 407.60547 282.29688 407.96484 L 283.94141 407.96484 C 284.85807 408.14714 285.67643 408.23633 286.40039 408.23633 C 287.30143 408.23633 288.70312 408.19466 290.60938 408.11133 C 292.52604 408.01758 293.75911 407.96484 294.31641 407.96484 C 298.31641 407.78776 300.85807 406.60612 301.94141 404.42383 C 302.31641 403.14779 303.13477 400.23503 304.40039 395.69336 C 307.67643 382.59961 309.68229 374.31966 310.42188 370.86133 C 311.68229 364.86133 313.49479 357.3138 315.85938 348.21484 C 316.05208 347.48047 318.15039 338.38216 322.15039 320.92383 C 322.50977 319.83008 322.7806 314.83008 322.96289 305.92383 C 323.13997 293.54883 323.50521 285.54297 324.04688 281.90234 C 324.22396 280.44401 324.31641 278.89648 324.31641 277.25586 C 324.31641 273.99544 322.95312 271.90299 320.23438 270.98633 C 318.59375 270.44466 315.68099 270.17383 311.50391 270.17383 L 307.96289 270.17383 z M 213.2793 289.81836 C 216.91471 289.81836 219.18555 290.08919 220.0918 290.63086 C 221.72721 291.37044 222.63802 293.1888 222.82031 296.08984 C 223.17969 298.82943 223.36328 303.55859 223.36328 310.27734 C 223.36328 314.45964 223.17969 320.55794 222.82031 328.56836 C 222.82031 328.75065 222.76953 329.02148 222.67578 329.38086 C 222.59245 329.74544 222.55078 330.01628 222.55078 330.19336 L 222.55078 334.29883 C 222.55078 335.20508 222.49805 336.70508 222.4043 338.79883 C 222.32096 340.88216 222.2793 342.47461 222.2793 343.56836 L 222.2793 350.11133 L 222.2793 366.75586 C 222.2793 368.39648 222.22656 370.12565 222.13281 371.94336 C 222.04948 373.76628 222.00781 374.85547 222.00781 375.21484 C 221.64323 377.77214 220.91406 379.41211 219.82031 380.13086 C 218.73698 380.85482 216.55534 381.21484 213.2793 381.21484 L 210.2793 381.21484 C 208.82096 381.03776 207.76823 380.90169 207.13281 380.81836 C 206.49219 380.72461 205.76302 380.36133 204.94531 379.73633 C 204.1224 379.10091 203.44596 378.04818 202.9043 376.58984 C 201.62305 373.13151 200.80469 366.12565 200.44531 355.56836 C 200.26302 349.56836 200.17578 341.66276 200.17578 331.83984 L 200.17578 322.00586 C 200.17578 319.64648 200.08138 316.10482 199.9043 311.38086 C 199.722 306.64648 199.63281 303.10091 199.63281 300.73633 C 199.63281 295.64258 200.63281 292.54818 202.63281 291.46484 C 204.63281 290.37109 208.18034 289.81836 213.2793 289.81836 z "
           style="stroke-width:1.33333;fill:#ffffff"
           id="path6" />
      </g>
    </g>
  </g>
  <g
     id="g20"
     fill-opacity="1"
     fill="#000000">
    <g
       id="g18"
       transform="translate(86.169979, 188.683994)">
      <g
         id="g16" />
    </g>
  </g>
  <g
     id="g28"
     fill-opacity="1"
     fill="#000000">
    <g
       id="g26"
       transform="translate(113.182414, 188.683994)">
      <g
         id="g24" />
    </g>
  </g>
  <g
     id="g36"
     fill-opacity="1"
     fill="#000000">
    <g
       id="g34"
       transform="translate(171.709362, 188.683994)">
      <g
         id="g32" />
    </g>
  </g>
  <g
     id="g44"
     fill-opacity="1"
     fill="#000000">
    <g
       id="g42"
       transform="translate(230.236309, 188.683994)">
      <g
         id="g40" />
    </g>
  </g>
  <g
     id="g52"
     fill-opacity="1"
     fill="#000000">
    <g
       id="g50"
       transform="translate(288.763257, 188.683994)">
      <g
         id="g48" />
    </g>
  </g>
  <g
     id="g60"
     fill-opacity="1"
     fill="#000000">
    <g
       id="g58"
       transform="translate(70.323026, 308.020465)">
      <g
         id="g56" />
    </g>
  </g>
  <g
     id="g68"
     fill-opacity="1"
     fill="#000000">
    <g
       id="g66"
       transform="translate(128.849974, 308.020465)">
      <g
         id="g64" />
    </g>
  </g>
  <g
     id="g76"
     fill-opacity="1"
     fill="#000000">
    <g
       id="g74"
       transform="translate(187.581539, 308.020465)">
      <g
         id="g72" />
    </g>
  </g>
  <g
     id="g84"
     fill-opacity="1"
     fill="#000000">
    <g
       id="g82"
       transform="translate(246.108487, 308.020465)">
      <g
         id="g80" />
    </g>
  </g>
</svg>
